<mxfile host="app.diagrams.net" agent="Mozilla/5.0 (Windows NT 10.0; Win64; x64) AppleWebKit/537.36 (KHTML, like Gecko) Chrome/137.0.0.0 Safari/537.36" version="27.1.4">
  <diagram name="Trang-1" id="X2tpXtrFmzFixdNBfU9U">
    <mxGraphModel dx="1489" dy="803" grid="1" gridSize="10" guides="1" tooltips="1" connect="1" arrows="1" fold="1" page="1" pageScale="1" pageWidth="827" pageHeight="1169" math="0" shadow="0">
      <root>
        <mxCell id="0" />
        <mxCell id="1" parent="0" />
        <object label="Admin" id="r0Z-wD1e8p9yeaoBVyqa-1">
          <mxCell style="shape=umlActor;verticalLabelPosition=bottom;verticalAlign=top;html=1;outlineConnect=0;" parent="1" vertex="1">
            <mxGeometry x="200" y="70" width="30" height="60" as="geometry" />
          </mxCell>
        </object>
        <mxCell id="r0Z-wD1e8p9yeaoBVyqa-2" value="" style="endArrow=none;dashed=1;html=1;rounded=0;entryX=0.5;entryY=0.5;entryDx=0;entryDy=0;entryPerimeter=0;" parent="1" edge="1">
          <mxGeometry width="50" height="50" relative="1" as="geometry">
            <mxPoint x="214.41" y="270" as="sourcePoint" />
            <mxPoint x="214.41" y="160" as="targetPoint" />
          </mxGeometry>
        </mxCell>
        <mxCell id="r0Z-wD1e8p9yeaoBVyqa-5" value="" style="shape=umlBoundary;whiteSpace=wrap;html=1;fillColor=light-dark(#FFFFCC,#FFFFCC);" parent="1" vertex="1">
          <mxGeometry x="570" y="50" width="100" height="80" as="geometry" />
        </mxCell>
        <mxCell id="r0Z-wD1e8p9yeaoBVyqa-6" value="" style="endArrow=none;dashed=1;html=1;rounded=0;entryX=0.572;entryY=1.003;entryDx=0;entryDy=0;entryPerimeter=0;" parent="1" edge="1">
          <mxGeometry width="50" height="50" relative="1" as="geometry">
            <mxPoint x="627.4099999999999" y="239.76" as="sourcePoint" />
            <mxPoint x="627.4099999999999" y="160" as="targetPoint" />
          </mxGeometry>
        </mxCell>
        <mxCell id="r0Z-wD1e8p9yeaoBVyqa-8" value="" style="ellipse;shape=umlControl;whiteSpace=wrap;html=1;fillColor=light-dark(#FFFFCC,#FFFFCC);" parent="1" vertex="1">
          <mxGeometry x="817" y="50" width="70" height="80" as="geometry" />
        </mxCell>
        <mxCell id="r0Z-wD1e8p9yeaoBVyqa-9" value="" style="endArrow=none;dashed=1;html=1;rounded=0;entryX=0.497;entryY=1.013;entryDx=0;entryDy=0;entryPerimeter=0;" parent="1" edge="1">
          <mxGeometry width="50" height="50" relative="1" as="geometry">
            <mxPoint x="851.41" y="258.96" as="sourcePoint" />
            <mxPoint x="851.41" y="160.00000000000009" as="targetPoint" />
          </mxGeometry>
        </mxCell>
        <mxCell id="r0Z-wD1e8p9yeaoBVyqa-11" value="" style="ellipse;shape=umlEntity;whiteSpace=wrap;html=1;fillColor=light-dark(#FFFFCC,#FFFFCC);" parent="1" vertex="1">
          <mxGeometry x="1031" y="50" width="80" height="80" as="geometry" />
        </mxCell>
        <mxCell id="r0Z-wD1e8p9yeaoBVyqa-13" value="" style="endArrow=none;dashed=1;html=1;rounded=0;entryX=0.5;entryY=1;entryDx=0;entryDy=0;" parent="1" edge="1">
          <mxGeometry width="50" height="50" relative="1" as="geometry">
            <mxPoint x="1066.4099999999999" y="280" as="sourcePoint" />
            <mxPoint x="1066.4099999999999" y="160" as="targetPoint" />
          </mxGeometry>
        </mxCell>
        <mxCell id="r0Z-wD1e8p9yeaoBVyqa-15" value="" style="endArrow=none;dashed=1;html=1;rounded=0;entryX=0.5;entryY=0.5;entryDx=0;entryDy=0;entryPerimeter=0;exitX=0.054;exitY=1;exitDx=0;exitDy=0;exitPerimeter=0;" parent="1" source="t2IlK6hyEzOwyV2dMNDj-5" target="r0Z-wD1e8p9yeaoBVyqa-16" edge="1">
          <mxGeometry width="50" height="50" relative="1" as="geometry">
            <mxPoint x="215" y="1220" as="sourcePoint" />
            <mxPoint x="215" y="130" as="targetPoint" />
          </mxGeometry>
        </mxCell>
        <mxCell id="r0Z-wD1e8p9yeaoBVyqa-16" value="" style="html=1;points=[[0,0,0,0,5],[0,1,0,0,-5],[1,0,0,0,5],[1,1,0,0,-5]];perimeter=orthogonalPerimeter;outlineConnect=0;targetShapes=umlLifeline;portConstraint=eastwest;newEdgeStyle={&quot;curved&quot;:0,&quot;rounded&quot;:0};" parent="1" vertex="1">
          <mxGeometry x="210" y="170" width="10" height="30" as="geometry" />
        </mxCell>
        <mxCell id="r0Z-wD1e8p9yeaoBVyqa-19" value="" style="endArrow=none;dashed=1;html=1;rounded=0;entryX=0.572;entryY=1.003;entryDx=0;entryDy=0;entryPerimeter=0;" parent="1" source="r0Z-wD1e8p9yeaoBVyqa-36" target="r0Z-wD1e8p9yeaoBVyqa-17" edge="1">
          <mxGeometry width="50" height="50" relative="1" as="geometry">
            <mxPoint x="420" y="530" as="sourcePoint" />
            <mxPoint x="371" y="160" as="targetPoint" />
          </mxGeometry>
        </mxCell>
        <mxCell id="r0Z-wD1e8p9yeaoBVyqa-17" value="" style="html=1;points=[[0,0,0,0,5],[0,1,0,0,-5],[1,0,0,0,5],[1,1,0,0,-5]];perimeter=orthogonalPerimeter;outlineConnect=0;targetShapes=umlLifeline;portConstraint=eastwest;newEdgeStyle={&quot;curved&quot;:0,&quot;rounded&quot;:0};" parent="1" vertex="1">
          <mxGeometry x="621" y="200" width="10" height="150" as="geometry" />
        </mxCell>
        <mxCell id="r0Z-wD1e8p9yeaoBVyqa-21" value="Mở chức năng &quot;Quản lý người dùng&quot;" style="html=1;verticalAlign=bottom;endArrow=block;curved=0;rounded=0;" parent="1" target="GapgydkodPAE_BLS_c7m-6" edge="1">
          <mxGeometry width="80" relative="1" as="geometry">
            <mxPoint x="220" y="190" as="sourcePoint" />
            <mxPoint x="621" y="190" as="targetPoint" />
          </mxGeometry>
        </mxCell>
        <mxCell id="r0Z-wD1e8p9yeaoBVyqa-22" value="" style="endArrow=none;dashed=1;html=1;rounded=0;entryX=0.497;entryY=1.013;entryDx=0;entryDy=0;entryPerimeter=0;" parent="1" source="r0Z-wD1e8p9yeaoBVyqa-37" target="r0Z-wD1e8p9yeaoBVyqa-23" edge="1">
          <mxGeometry width="50" height="50" relative="1" as="geometry">
            <mxPoint x="645" y="530" as="sourcePoint" />
            <mxPoint x="645" y="161" as="targetPoint" />
          </mxGeometry>
        </mxCell>
        <mxCell id="r0Z-wD1e8p9yeaoBVyqa-23" value="" style="html=1;points=[[0,0,0,0,5],[0,1,0,0,-5],[1,0,0,0,5],[1,1,0,0,-5]];perimeter=orthogonalPerimeter;outlineConnect=0;targetShapes=umlLifeline;portConstraint=eastwest;newEdgeStyle={&quot;curved&quot;:0,&quot;rounded&quot;:0};" parent="1" vertex="1">
          <mxGeometry x="847" y="220" width="10" height="100" as="geometry" />
        </mxCell>
        <mxCell id="r0Z-wD1e8p9yeaoBVyqa-24" value="Yêu cầu danh sách người dùng" style="html=1;verticalAlign=bottom;endArrow=block;curved=0;rounded=0;" parent="1" edge="1">
          <mxGeometry width="80" relative="1" as="geometry">
            <mxPoint x="631" y="230" as="sourcePoint" />
            <mxPoint x="847" y="230" as="targetPoint" />
          </mxGeometry>
        </mxCell>
        <mxCell id="r0Z-wD1e8p9yeaoBVyqa-25" value="" style="endArrow=none;dashed=1;html=1;rounded=0;entryX=0.5;entryY=1;entryDx=0;entryDy=0;" parent="1" source="r0Z-wD1e8p9yeaoBVyqa-38" target="r0Z-wD1e8p9yeaoBVyqa-26" edge="1">
          <mxGeometry width="50" height="50" relative="1" as="geometry">
            <mxPoint x="1067" y="570" as="sourcePoint" />
            <mxPoint x="1067" y="160" as="targetPoint" />
          </mxGeometry>
        </mxCell>
        <mxCell id="r0Z-wD1e8p9yeaoBVyqa-26" value="" style="html=1;points=[[0,0,0,0,5],[0,1,0,0,-5],[1,0,0,0,5],[1,1,0,0,-5]];perimeter=orthogonalPerimeter;outlineConnect=0;targetShapes=umlLifeline;portConstraint=eastwest;newEdgeStyle={&quot;curved&quot;:0,&quot;rounded&quot;:0};" parent="1" vertex="1">
          <mxGeometry x="1062" y="250" width="10" height="50" as="geometry" />
        </mxCell>
        <mxCell id="r0Z-wD1e8p9yeaoBVyqa-27" value="Lấy danh sách người dùng" style="html=1;verticalAlign=bottom;endArrow=block;curved=0;rounded=0;" parent="1" target="r0Z-wD1e8p9yeaoBVyqa-26" edge="1">
          <mxGeometry width="80" relative="1" as="geometry">
            <mxPoint x="857" y="260" as="sourcePoint" />
            <mxPoint x="937" y="260" as="targetPoint" />
          </mxGeometry>
        </mxCell>
        <mxCell id="r0Z-wD1e8p9yeaoBVyqa-32" value="Danh sách người dùng" style="html=1;verticalAlign=bottom;endArrow=open;dashed=1;endSize=8;curved=0;rounded=0;" parent="1" edge="1">
          <mxGeometry relative="1" as="geometry">
            <mxPoint x="1062" y="289.44" as="sourcePoint" />
            <mxPoint x="857" y="289.44" as="targetPoint" />
          </mxGeometry>
        </mxCell>
        <mxCell id="r0Z-wD1e8p9yeaoBVyqa-33" value="Danh sách người dùng" style="html=1;verticalAlign=bottom;endArrow=open;dashed=1;endSize=8;curved=0;rounded=0;" parent="1" edge="1">
          <mxGeometry relative="1" as="geometry">
            <mxPoint x="848" y="310" as="sourcePoint" />
            <mxPoint x="632" y="310" as="targetPoint" />
          </mxGeometry>
        </mxCell>
        <mxCell id="r0Z-wD1e8p9yeaoBVyqa-34" value="" style="html=1;points=[[0,0,0,0,5],[0,1,0,0,-5],[1,0,0,0,5],[1,1,0,0,-5]];perimeter=orthogonalPerimeter;outlineConnect=0;targetShapes=umlLifeline;portConstraint=eastwest;newEdgeStyle={&quot;curved&quot;:0,&quot;rounded&quot;:0};" parent="1" vertex="1">
          <mxGeometry x="210" y="360" width="10" height="90" as="geometry" />
        </mxCell>
        <mxCell id="r0Z-wD1e8p9yeaoBVyqa-35" value="" style="endArrow=none;dashed=1;html=1;rounded=0;entryX=0.572;entryY=1.003;entryDx=0;entryDy=0;entryPerimeter=0;exitX=0.466;exitY=1.001;exitDx=0;exitDy=0;exitPerimeter=0;" parent="1" target="r0Z-wD1e8p9yeaoBVyqa-36" edge="1" source="t2IlK6hyEzOwyV2dMNDj-5">
          <mxGeometry width="50" height="50" relative="1" as="geometry">
            <mxPoint x="627" y="1240" as="sourcePoint" />
            <mxPoint x="627" y="370" as="targetPoint" />
          </mxGeometry>
        </mxCell>
        <mxCell id="r0Z-wD1e8p9yeaoBVyqa-36" value="" style="html=1;points=[[0,0,0,0,5],[0,1,0,0,-5],[1,0,0,0,5],[1,1,0,0,-5]];perimeter=orthogonalPerimeter;outlineConnect=0;targetShapes=umlLifeline;portConstraint=eastwest;newEdgeStyle={&quot;curved&quot;:0,&quot;rounded&quot;:0};" parent="1" vertex="1">
          <mxGeometry x="621" y="360" width="10" height="120" as="geometry" />
        </mxCell>
        <mxCell id="r0Z-wD1e8p9yeaoBVyqa-41" value="Chọn &quot;Thêm người dùng mới&quot;" style="html=1;verticalAlign=bottom;endArrow=block;curved=0;rounded=0;" parent="1" edge="1">
          <mxGeometry width="80" relative="1" as="geometry">
            <mxPoint x="220" y="370" as="sourcePoint" />
            <mxPoint x="621" y="370" as="targetPoint" />
          </mxGeometry>
        </mxCell>
        <mxCell id="r0Z-wD1e8p9yeaoBVyqa-42" value="" style="endArrow=none;dashed=1;html=1;rounded=0;entryX=0.497;entryY=1.013;entryDx=0;entryDy=0;entryPerimeter=0;exitX=0.693;exitY=1.002;exitDx=0;exitDy=0;exitPerimeter=0;" parent="1" target="r0Z-wD1e8p9yeaoBVyqa-37" edge="1" source="t2IlK6hyEzOwyV2dMNDj-5">
          <mxGeometry width="50" height="50" relative="1" as="geometry">
            <mxPoint x="852" y="1240" as="sourcePoint" />
            <mxPoint x="852" y="362" as="targetPoint" />
          </mxGeometry>
        </mxCell>
        <mxCell id="r0Z-wD1e8p9yeaoBVyqa-37" value="" style="html=1;points=[[0,0,0,0,5],[0,1,0,0,-5],[1,0,0,0,5],[1,1,0,0,-5]];perimeter=orthogonalPerimeter;outlineConnect=0;targetShapes=umlLifeline;portConstraint=eastwest;newEdgeStyle={&quot;curved&quot;:0,&quot;rounded&quot;:0};" parent="1" vertex="1">
          <mxGeometry x="847" y="450" width="10" height="40" as="geometry" />
        </mxCell>
        <mxCell id="r0Z-wD1e8p9yeaoBVyqa-44" value="Hiển thị giao diện thêm người dùng mới" style="html=1;verticalAlign=bottom;endArrow=open;dashed=1;endSize=8;curved=0;rounded=0;" parent="1" target="r0Z-wD1e8p9yeaoBVyqa-34" edge="1">
          <mxGeometry relative="1" as="geometry">
            <mxPoint x="621" y="400" as="sourcePoint" />
            <mxPoint x="405" y="400" as="targetPoint" />
          </mxGeometry>
        </mxCell>
        <mxCell id="r0Z-wD1e8p9yeaoBVyqa-45" value="Nhập thông tin (email, tên, quyền...)&amp;nbsp;&lt;div&gt;và nhấn &quot;Thêm&quot;&lt;/div&gt;" style="html=1;verticalAlign=bottom;endArrow=block;curved=0;rounded=0;" parent="1" edge="1" target="r0Z-wD1e8p9yeaoBVyqa-36">
          <mxGeometry width="80" relative="1" as="geometry">
            <mxPoint x="220" y="440" as="sourcePoint" />
            <mxPoint x="414" y="440" as="targetPoint" />
          </mxGeometry>
        </mxCell>
        <mxCell id="r0Z-wD1e8p9yeaoBVyqa-46" value="Thêm tài khoản(email, tên, quyền..)" style="html=1;verticalAlign=bottom;endArrow=block;curved=0;rounded=0;" parent="1" edge="1">
          <mxGeometry width="80" relative="1" as="geometry">
            <mxPoint x="631" y="459.44" as="sourcePoint" />
            <mxPoint x="847" y="459.44" as="targetPoint" />
          </mxGeometry>
        </mxCell>
        <mxCell id="r0Z-wD1e8p9yeaoBVyqa-47" value="" style="endArrow=none;dashed=1;html=1;rounded=0;entryX=0.5;entryY=1;entryDx=0;entryDy=0;exitX=0.907;exitY=1.003;exitDx=0;exitDy=0;exitPerimeter=0;" parent="1" target="r0Z-wD1e8p9yeaoBVyqa-38" edge="1" source="t2IlK6hyEzOwyV2dMNDj-5">
          <mxGeometry width="50" height="50" relative="1" as="geometry">
            <mxPoint x="1067" y="1240" as="sourcePoint" />
            <mxPoint x="1067" y="350" as="targetPoint" />
          </mxGeometry>
        </mxCell>
        <mxCell id="r0Z-wD1e8p9yeaoBVyqa-38" value="" style="html=1;points=[[0,0,0,0,5],[0,1,0,0,-5],[1,0,0,0,5],[1,1,0,0,-5]];perimeter=orthogonalPerimeter;outlineConnect=0;targetShapes=umlLifeline;portConstraint=eastwest;newEdgeStyle={&quot;curved&quot;:0,&quot;rounded&quot;:0};" parent="1" vertex="1">
          <mxGeometry x="1062" y="470" width="10" height="80" as="geometry" />
        </mxCell>
        <mxCell id="r0Z-wD1e8p9yeaoBVyqa-48" value="Tạo tài khoản(email, tên, quyền..)" style="html=1;verticalAlign=bottom;endArrow=block;curved=0;rounded=0;" parent="1" edge="1">
          <mxGeometry width="80" relative="1" as="geometry">
            <mxPoint x="857" y="480" as="sourcePoint" />
            <mxPoint x="1062" y="480" as="targetPoint" />
          </mxGeometry>
        </mxCell>
        <mxCell id="r0Z-wD1e8p9yeaoBVyqa-50" value="alt" style="shape=umlFrame;whiteSpace=wrap;html=1;pointerEvents=0;width=30;height=20;" parent="1" vertex="1">
          <mxGeometry x="170" y="560" width="970" height="530" as="geometry" />
        </mxCell>
        <mxCell id="r0Z-wD1e8p9yeaoBVyqa-51" value="[Email đã tồn tại]" style="text;html=1;align=center;verticalAlign=middle;resizable=0;points=[];autosize=1;strokeColor=none;fillColor=none;" parent="1" vertex="1">
          <mxGeometry x="230" y="560" width="110" height="30" as="geometry" />
        </mxCell>
        <mxCell id="r0Z-wD1e8p9yeaoBVyqa-55" value="" style="html=1;points=[[0,0,0,0,5],[0,1,0,0,-5],[1,0,0,0,5],[1,1,0,0,-5]];perimeter=orthogonalPerimeter;outlineConnect=0;targetShapes=umlLifeline;portConstraint=eastwest;newEdgeStyle={&quot;curved&quot;:0,&quot;rounded&quot;:0};" parent="1" vertex="1">
          <mxGeometry x="1062" y="570" width="10" height="50" as="geometry" />
        </mxCell>
        <mxCell id="r0Z-wD1e8p9yeaoBVyqa-56" value="" style="html=1;points=[[0,0,0,0,5],[0,1,0,0,-5],[1,0,0,0,5],[1,1,0,0,-5]];perimeter=orthogonalPerimeter;outlineConnect=0;targetShapes=umlLifeline;portConstraint=eastwest;newEdgeStyle={&quot;curved&quot;:0,&quot;rounded&quot;:0};" parent="1" vertex="1">
          <mxGeometry x="847" y="570" width="10" height="60" as="geometry" />
        </mxCell>
        <mxCell id="r0Z-wD1e8p9yeaoBVyqa-57" value="Email đã tồn tại" style="html=1;verticalAlign=bottom;endArrow=open;dashed=1;endSize=8;curved=0;rounded=0;" parent="1" edge="1">
          <mxGeometry x="-0.0039" relative="1" as="geometry">
            <mxPoint x="1062" y="590" as="sourcePoint" />
            <mxPoint x="857" y="590.0000000000002" as="targetPoint" />
            <mxPoint as="offset" />
          </mxGeometry>
        </mxCell>
        <mxCell id="r0Z-wD1e8p9yeaoBVyqa-58" value="" style="html=1;points=[[0,0,0,0,5],[0,1,0,0,-5],[1,0,0,0,5],[1,1,0,0,-5]];perimeter=orthogonalPerimeter;outlineConnect=0;targetShapes=umlLifeline;portConstraint=eastwest;newEdgeStyle={&quot;curved&quot;:0,&quot;rounded&quot;:0};" parent="1" vertex="1">
          <mxGeometry x="623" y="600" width="10" height="50" as="geometry" />
        </mxCell>
        <mxCell id="r0Z-wD1e8p9yeaoBVyqa-59" value="Thông báo email đã tồn tại&lt;br&gt;Hiển thị 2 lựa chọn :&lt;br&gt;+Xóa tài khoản cũ&lt;br&gt;+ Hủy thêm tài khoản" style="html=1;verticalAlign=bottom;endArrow=open;dashed=1;endSize=8;curved=0;rounded=0;" parent="1" target="GapgydkodPAE_BLS_c7m-14" edge="1">
          <mxGeometry relative="1" as="geometry">
            <mxPoint x="623" y="630" as="sourcePoint" />
            <mxPoint x="408" y="630" as="targetPoint" />
          </mxGeometry>
        </mxCell>
        <mxCell id="r0Z-wD1e8p9yeaoBVyqa-60" value="alt" style="shape=umlFrame;whiteSpace=wrap;html=1;pointerEvents=0;width=30;height=30;" parent="1" vertex="1">
          <mxGeometry x="180" y="670" width="940" height="270" as="geometry" />
        </mxCell>
        <mxCell id="r0Z-wD1e8p9yeaoBVyqa-61" value="[ Admin chọn&lt;br&gt;xóa tài khoản cũ]" style="text;html=1;align=center;verticalAlign=middle;resizable=0;points=[];autosize=1;strokeColor=none;fillColor=none;" parent="1" vertex="1">
          <mxGeometry x="235" y="670" width="110" height="40" as="geometry" />
        </mxCell>
        <mxCell id="r0Z-wD1e8p9yeaoBVyqa-62" value="" style="html=1;points=[[0,0,0,0,5],[0,1,0,0,-5],[1,0,0,0,5],[1,1,0,0,-5]];perimeter=orthogonalPerimeter;outlineConnect=0;targetShapes=umlLifeline;portConstraint=eastwest;newEdgeStyle={&quot;curved&quot;:0,&quot;rounded&quot;:0};" parent="1" vertex="1">
          <mxGeometry x="623" y="710" width="10" height="130" as="geometry" />
        </mxCell>
        <mxCell id="r0Z-wD1e8p9yeaoBVyqa-63" value="" style="html=1;points=[[0,0,0,0,5],[0,1,0,0,-5],[1,0,0,0,5],[1,1,0,0,-5]];perimeter=orthogonalPerimeter;outlineConnect=0;targetShapes=umlLifeline;portConstraint=eastwest;newEdgeStyle={&quot;curved&quot;:0,&quot;rounded&quot;:0};" parent="1" vertex="1">
          <mxGeometry x="847" y="710" width="10" height="110" as="geometry" />
        </mxCell>
        <mxCell id="r0Z-wD1e8p9yeaoBVyqa-64" value="" style="html=1;points=[[0,0,0,0,5],[0,1,0,0,-5],[1,0,0,0,5],[1,1,0,0,-5]];perimeter=orthogonalPerimeter;outlineConnect=0;targetShapes=umlLifeline;portConstraint=eastwest;newEdgeStyle={&quot;curved&quot;:0,&quot;rounded&quot;:0};" parent="1" vertex="1">
          <mxGeometry x="1062" y="720" width="10" height="80" as="geometry" />
        </mxCell>
        <mxCell id="r0Z-wD1e8p9yeaoBVyqa-66" value="Xác nhận xóa tài khoản cũ" style="html=1;verticalAlign=bottom;endArrow=block;curved=0;rounded=0;" parent="1" edge="1">
          <mxGeometry width="80" relative="1" as="geometry">
            <mxPoint x="631" y="740" as="sourcePoint" />
            <mxPoint x="846" y="740" as="targetPoint" />
          </mxGeometry>
        </mxCell>
        <mxCell id="r0Z-wD1e8p9yeaoBVyqa-67" value="Xóa tài khoản người dùng cũ&lt;br&gt;và tạo tài khoản mới" style="html=1;verticalAlign=bottom;endArrow=block;curved=0;rounded=0;" parent="1" edge="1">
          <mxGeometry x="-0.0014" width="80" relative="1" as="geometry">
            <mxPoint x="857" y="760" as="sourcePoint" />
            <mxPoint x="1062" y="760" as="targetPoint" />
            <mxPoint as="offset" />
          </mxGeometry>
        </mxCell>
        <mxCell id="r0Z-wD1e8p9yeaoBVyqa-72" value="Kết quả thêm tài khoản mới" style="html=1;verticalAlign=bottom;endArrow=open;dashed=1;endSize=8;curved=0;rounded=0;" parent="1" edge="1">
          <mxGeometry relative="1" as="geometry">
            <mxPoint x="1062" y="788.82" as="sourcePoint" />
            <mxPoint x="857" y="788.82" as="targetPoint" />
          </mxGeometry>
        </mxCell>
        <mxCell id="r0Z-wD1e8p9yeaoBVyqa-73" value="Kết quả thêm tài khoản mới" style="html=1;verticalAlign=bottom;endArrow=open;dashed=1;endSize=8;curved=0;rounded=0;" parent="1" edge="1">
          <mxGeometry relative="1" as="geometry">
            <mxPoint x="845" y="810" as="sourcePoint" />
            <mxPoint x="631" y="810" as="targetPoint" />
          </mxGeometry>
        </mxCell>
        <mxCell id="r0Z-wD1e8p9yeaoBVyqa-74" value="" style="endArrow=none;dashed=1;html=1;dashPattern=1 3;strokeWidth=2;rounded=0;entryX=0.999;entryY=0.888;entryDx=0;entryDy=0;entryPerimeter=0;exitX=0.001;exitY=0.746;exitDx=0;exitDy=0;exitPerimeter=0;" parent="1" edge="1">
          <mxGeometry width="50" height="50" relative="1" as="geometry">
            <mxPoint x="180.93999999999983" y="853.6400000000001" as="sourcePoint" />
            <mxPoint x="1120" y="850" as="targetPoint" />
          </mxGeometry>
        </mxCell>
        <mxCell id="r0Z-wD1e8p9yeaoBVyqa-75" value="[Admin chọn&amp;nbsp;&lt;span style=&quot;background-color: transparent; color: light-dark(rgb(0, 0, 0), rgb(255, 255, 255));&quot;&gt;Hủy thêm tài khoản]&lt;/span&gt;" style="text;html=1;align=center;verticalAlign=middle;resizable=0;points=[];autosize=1;strokeColor=none;fillColor=none;" parent="1" vertex="1">
          <mxGeometry x="211" y="850" width="200" height="30" as="geometry" />
        </mxCell>
        <mxCell id="r0Z-wD1e8p9yeaoBVyqa-76" value="" style="html=1;points=[[0,0,0,0,5],[0,1,0,0,-5],[1,0,0,0,5],[1,1,0,0,-5]];perimeter=orthogonalPerimeter;outlineConnect=0;targetShapes=umlLifeline;portConstraint=eastwest;newEdgeStyle={&quot;curved&quot;:0,&quot;rounded&quot;:0};" parent="1" vertex="1">
          <mxGeometry x="622" y="870" width="10" height="60" as="geometry" />
        </mxCell>
        <mxCell id="r0Z-wD1e8p9yeaoBVyqa-77" value="" style="html=1;points=[[0,0,0,0,5],[0,1,0,0,-5],[1,0,0,0,5],[1,1,0,0,-5]];perimeter=orthogonalPerimeter;outlineConnect=0;targetShapes=umlLifeline;portConstraint=eastwest;newEdgeStyle={&quot;curved&quot;:0,&quot;rounded&quot;:0};" parent="1" vertex="1">
          <mxGeometry x="847" y="880" width="10" height="50" as="geometry" />
        </mxCell>
        <mxCell id="r0Z-wD1e8p9yeaoBVyqa-84" value="" style="endArrow=none;dashed=1;html=1;dashPattern=1 3;strokeWidth=2;rounded=0;exitX=0.001;exitY=0.737;exitDx=0;exitDy=0;exitPerimeter=0;entryX=1;entryY=0.738;entryDx=0;entryDy=0;entryPerimeter=0;" parent="1" edge="1">
          <mxGeometry width="50" height="50" relative="1" as="geometry">
            <mxPoint x="170.00000000000003" y="950" as="sourcePoint" />
            <mxPoint x="1139.03" y="950.6500000000001" as="targetPoint" />
          </mxGeometry>
        </mxCell>
        <mxCell id="r0Z-wD1e8p9yeaoBVyqa-85" value="[ Email hợp lệ ]" style="text;html=1;align=center;verticalAlign=middle;resizable=0;points=[];autosize=1;strokeColor=none;fillColor=none;" parent="1" vertex="1">
          <mxGeometry x="220" y="950" width="100" height="30" as="geometry" />
        </mxCell>
        <mxCell id="r0Z-wD1e8p9yeaoBVyqa-88" value="" style="html=1;points=[[0,0,0,0,5],[0,1,0,0,-5],[1,0,0,0,5],[1,1,0,0,-5]];perimeter=orthogonalPerimeter;outlineConnect=0;targetShapes=umlLifeline;portConstraint=eastwest;newEdgeStyle={&quot;curved&quot;:0,&quot;rounded&quot;:0};" parent="1" vertex="1">
          <mxGeometry x="1062" y="960" width="10" height="120" as="geometry" />
        </mxCell>
        <mxCell id="r0Z-wD1e8p9yeaoBVyqa-91" value="" style="html=1;points=[[0,0,0,0,5],[0,1,0,0,-5],[1,0,0,0,5],[1,1,0,0,-5]];perimeter=orthogonalPerimeter;outlineConnect=0;targetShapes=umlLifeline;portConstraint=eastwest;newEdgeStyle={&quot;curved&quot;:0,&quot;rounded&quot;:0};" parent="1" vertex="1">
          <mxGeometry x="847" y="1030" width="10" height="50" as="geometry" />
        </mxCell>
        <mxCell id="r0Z-wD1e8p9yeaoBVyqa-93" value="" style="html=1;points=[[0,0,0,0,5],[0,1,0,0,-5],[1,0,0,0,5],[1,1,0,0,-5]];perimeter=orthogonalPerimeter;outlineConnect=0;targetShapes=umlLifeline;portConstraint=eastwest;newEdgeStyle={&quot;curved&quot;:0,&quot;rounded&quot;:0};" parent="1" vertex="1">
          <mxGeometry x="621" y="1050" width="10" height="30" as="geometry" />
        </mxCell>
        <mxCell id="t2IlK6hyEzOwyV2dMNDj-1" value="V_UserManagementScreen" style="text;html=1;align=center;verticalAlign=middle;resizable=0;points=[];autosize=1;strokeColor=none;fillColor=none;" parent="1" vertex="1">
          <mxGeometry x="541" y="130" width="170" height="30" as="geometry" />
        </mxCell>
        <mxCell id="t2IlK6hyEzOwyV2dMNDj-2" value="&lt;span style=&quot;text-wrap-mode: wrap;&quot;&gt;AccountController&lt;/span&gt;" style="text;html=1;align=center;verticalAlign=middle;resizable=0;points=[];autosize=1;strokeColor=none;fillColor=none;" parent="1" vertex="1">
          <mxGeometry x="792" y="130" width="120" height="30" as="geometry" />
        </mxCell>
        <mxCell id="t2IlK6hyEzOwyV2dMNDj-3" value="&lt;span style=&quot;text-wrap-mode: wrap;&quot;&gt;Account&lt;/span&gt;" style="text;html=1;align=center;verticalAlign=middle;resizable=0;points=[];autosize=1;strokeColor=none;fillColor=none;" parent="1" vertex="1">
          <mxGeometry x="1036" y="130" width="70" height="30" as="geometry" />
        </mxCell>
        <mxCell id="t2IlK6hyEzOwyV2dMNDj-5" value="Admin thêm tài khoản người dùng" style="shape=umlFrame;whiteSpace=wrap;html=1;pointerEvents=0;width=140;height=40;" parent="1" vertex="1">
          <mxGeometry x="160" y="20" width="1000" height="1100" as="geometry" />
        </mxCell>
        <mxCell id="GapgydkodPAE_BLS_c7m-1" value="" style="shape=umlBoundary;whiteSpace=wrap;html=1;fillColor=light-dark(#FFFFCC,#FFFFCC);" vertex="1" parent="1">
          <mxGeometry x="364" y="50" width="100" height="80" as="geometry" />
        </mxCell>
        <mxCell id="GapgydkodPAE_BLS_c7m-3" value="" style="endArrow=none;dashed=1;html=1;rounded=0;entryX=0.5;entryY=0.5;entryDx=0;entryDy=0;entryPerimeter=0;" edge="1" parent="1" source="GapgydkodPAE_BLS_c7m-6">
          <mxGeometry width="50" height="50" relative="1" as="geometry">
            <mxPoint x="413.44" y="270" as="sourcePoint" />
            <mxPoint x="413.44" y="160" as="targetPoint" />
          </mxGeometry>
        </mxCell>
        <mxCell id="GapgydkodPAE_BLS_c7m-4" value="V_MainScreen" style="text;html=1;align=center;verticalAlign=middle;resizable=0;points=[];autosize=1;strokeColor=none;fillColor=none;" vertex="1" parent="1">
          <mxGeometry x="364" y="130" width="100" height="30" as="geometry" />
        </mxCell>
        <mxCell id="GapgydkodPAE_BLS_c7m-5" value="" style="endArrow=none;dashed=1;html=1;rounded=0;entryX=0.5;entryY=0.5;entryDx=0;entryDy=0;entryPerimeter=0;exitX=0.485;exitY=0.47;exitDx=0;exitDy=0;exitPerimeter=0;" edge="1" parent="1" source="GapgydkodPAE_BLS_c7m-8" target="GapgydkodPAE_BLS_c7m-6">
          <mxGeometry width="50" height="50" relative="1" as="geometry">
            <mxPoint x="414" y="240" as="sourcePoint" />
            <mxPoint x="413.44" y="160" as="targetPoint" />
          </mxGeometry>
        </mxCell>
        <mxCell id="GapgydkodPAE_BLS_c7m-6" value="" style="html=1;points=[[0,0,0,0,5],[0,1,0,0,-5],[1,0,0,0,5],[1,1,0,0,-5]];perimeter=orthogonalPerimeter;outlineConnect=0;targetShapes=umlLifeline;portConstraint=eastwest;newEdgeStyle={&quot;curved&quot;:0,&quot;rounded&quot;:0};" vertex="1" parent="1">
          <mxGeometry x="409" y="170" width="10" height="50" as="geometry" />
        </mxCell>
        <mxCell id="GapgydkodPAE_BLS_c7m-7" value="Hiển thị giao diện&amp;nbsp;&lt;br&gt;&quot;Quản lý người dùng" style="html=1;verticalAlign=bottom;endArrow=block;curved=0;rounded=0;" edge="1" parent="1" target="r0Z-wD1e8p9yeaoBVyqa-17">
          <mxGeometry width="80" relative="1" as="geometry">
            <mxPoint x="419" y="209.44" as="sourcePoint" />
            <mxPoint x="499" y="209.44" as="targetPoint" />
          </mxGeometry>
        </mxCell>
        <mxCell id="GapgydkodPAE_BLS_c7m-8" value="" style="shape=umlDestroy;whiteSpace=wrap;html=1;strokeWidth=3;targetShapes=umlLifeline;" vertex="1" parent="1">
          <mxGeometry x="406" y="235" width="15" height="15" as="geometry" />
        </mxCell>
        <mxCell id="GapgydkodPAE_BLS_c7m-10" value="" style="html=1;points=[[0,0,0,0,5],[0,1,0,0,-5],[1,0,0,0,5],[1,1,0,0,-5]];perimeter=orthogonalPerimeter;outlineConnect=0;targetShapes=umlLifeline;portConstraint=eastwest;newEdgeStyle={&quot;curved&quot;:0,&quot;rounded&quot;:0};" vertex="1" parent="1">
          <mxGeometry x="210" y="300" width="10" height="50" as="geometry" />
        </mxCell>
        <mxCell id="GapgydkodPAE_BLS_c7m-11" value="Hiển thị danh sách người dùng" style="html=1;verticalAlign=bottom;endArrow=open;dashed=1;endSize=8;curved=0;rounded=0;" edge="1" parent="1" target="GapgydkodPAE_BLS_c7m-10">
          <mxGeometry relative="1" as="geometry">
            <mxPoint x="621" y="330" as="sourcePoint" />
            <mxPoint x="541" y="330" as="targetPoint" />
          </mxGeometry>
        </mxCell>
        <mxCell id="GapgydkodPAE_BLS_c7m-12" value="" style="html=1;points=[[0,0,0,0,5],[0,1,0,0,-5],[1,0,0,0,5],[1,1,0,0,-5]];perimeter=orthogonalPerimeter;outlineConnect=0;targetShapes=umlLifeline;portConstraint=eastwest;newEdgeStyle={&quot;curved&quot;:0,&quot;rounded&quot;:0};" vertex="1" parent="1">
          <mxGeometry x="1067" y="510" width="10" height="20" as="geometry" />
        </mxCell>
        <mxCell id="GapgydkodPAE_BLS_c7m-13" value="Kiểm tra email&amp;nbsp;&lt;div&gt;tồn tại(email)&lt;/div&gt;" style="html=1;align=left;spacingLeft=2;endArrow=block;rounded=0;edgeStyle=orthogonalEdgeStyle;curved=0;rounded=0;" edge="1" target="GapgydkodPAE_BLS_c7m-12" parent="1">
          <mxGeometry x="-0.8118" y="10" relative="1" as="geometry">
            <mxPoint x="1072" y="490" as="sourcePoint" />
            <Array as="points">
              <mxPoint x="1102" y="520" />
            </Array>
            <mxPoint as="offset" />
          </mxGeometry>
        </mxCell>
        <mxCell id="GapgydkodPAE_BLS_c7m-14" value="" style="html=1;points=[[0,0,0,0,5],[0,1,0,0,-5],[1,0,0,0,5],[1,1,0,0,-5]];perimeter=orthogonalPerimeter;outlineConnect=0;targetShapes=umlLifeline;portConstraint=eastwest;newEdgeStyle={&quot;curved&quot;:0,&quot;rounded&quot;:0};" vertex="1" parent="1">
          <mxGeometry x="210" y="620" width="10" height="30" as="geometry" />
        </mxCell>
        <mxCell id="GapgydkodPAE_BLS_c7m-15" value="Email đã tồn tại" style="html=1;verticalAlign=bottom;endArrow=open;dashed=1;endSize=8;curved=0;rounded=0;" edge="1" parent="1" target="r0Z-wD1e8p9yeaoBVyqa-58">
          <mxGeometry relative="1" as="geometry">
            <mxPoint x="847" y="610" as="sourcePoint" />
            <mxPoint x="767" y="610" as="targetPoint" />
          </mxGeometry>
        </mxCell>
        <mxCell id="GapgydkodPAE_BLS_c7m-16" value="" style="html=1;points=[[0,0,0,0,5],[0,1,0,0,-5],[1,0,0,0,5],[1,1,0,0,-5]];perimeter=orthogonalPerimeter;outlineConnect=0;targetShapes=umlLifeline;portConstraint=eastwest;newEdgeStyle={&quot;curved&quot;:0,&quot;rounded&quot;:0};" vertex="1" parent="1">
          <mxGeometry x="211" y="710" width="10" height="130" as="geometry" />
        </mxCell>
        <mxCell id="GapgydkodPAE_BLS_c7m-17" value="Chọn &quot;Xóa tài khoản cũ&quot;" style="html=1;verticalAlign=bottom;endArrow=block;curved=0;rounded=0;" edge="1" parent="1" target="r0Z-wD1e8p9yeaoBVyqa-62">
          <mxGeometry width="80" relative="1" as="geometry">
            <mxPoint x="221" y="730" as="sourcePoint" />
            <mxPoint x="301" y="730" as="targetPoint" />
          </mxGeometry>
        </mxCell>
        <mxCell id="GapgydkodPAE_BLS_c7m-18" value="Hiển thị kết quả quá trình thêm tài khoản" style="html=1;verticalAlign=bottom;endArrow=open;dashed=1;endSize=8;curved=0;rounded=0;" edge="1" parent="1" target="GapgydkodPAE_BLS_c7m-16">
          <mxGeometry relative="1" as="geometry">
            <mxPoint x="622" y="830" as="sourcePoint" />
            <mxPoint x="542" y="830" as="targetPoint" />
          </mxGeometry>
        </mxCell>
        <mxCell id="GapgydkodPAE_BLS_c7m-19" value="" style="html=1;points=[[0,0,0,0,5],[0,1,0,0,-5],[1,0,0,0,5],[1,1,0,0,-5]];perimeter=orthogonalPerimeter;outlineConnect=0;targetShapes=umlLifeline;portConstraint=eastwest;newEdgeStyle={&quot;curved&quot;:0,&quot;rounded&quot;:0};" vertex="1" parent="1">
          <mxGeometry x="210" y="870" width="10" height="60" as="geometry" />
        </mxCell>
        <mxCell id="GapgydkodPAE_BLS_c7m-20" value="Chọn &quot;Hủy thêm tài khoản&quot;" style="html=1;verticalAlign=bottom;endArrow=block;curved=0;rounded=0;" edge="1" parent="1">
          <mxGeometry width="80" relative="1" as="geometry">
            <mxPoint x="219" y="890" as="sourcePoint" />
            <mxPoint x="621" y="890" as="targetPoint" />
          </mxGeometry>
        </mxCell>
        <mxCell id="GapgydkodPAE_BLS_c7m-21" value="Hủy thêm tài khoản" style="html=1;verticalAlign=bottom;endArrow=block;curved=0;rounded=0;" edge="1" parent="1" target="r0Z-wD1e8p9yeaoBVyqa-77">
          <mxGeometry width="80" relative="1" as="geometry">
            <mxPoint x="633" y="904.5" as="sourcePoint" />
            <mxPoint x="713" y="904.5" as="targetPoint" />
          </mxGeometry>
        </mxCell>
        <mxCell id="GapgydkodPAE_BLS_c7m-23" value="Hiển thị kết quả quá trình hủy thêm tài khoản" style="html=1;verticalAlign=bottom;endArrow=open;dashed=1;endSize=8;curved=0;rounded=0;" edge="1" parent="1" target="GapgydkodPAE_BLS_c7m-19">
          <mxGeometry relative="1" as="geometry">
            <mxPoint x="623" y="920" as="sourcePoint" />
            <mxPoint x="543" y="920" as="targetPoint" />
          </mxGeometry>
        </mxCell>
        <mxCell id="GapgydkodPAE_BLS_c7m-25" value="" style="html=1;points=[[0,0,0,0,5],[0,1,0,0,-5],[1,0,0,0,5],[1,1,0,0,-5]];perimeter=orthogonalPerimeter;outlineConnect=0;targetShapes=umlLifeline;portConstraint=eastwest;newEdgeStyle={&quot;curved&quot;:0,&quot;rounded&quot;:0};" vertex="1" parent="1">
          <mxGeometry x="1066" y="1000" width="10" height="20" as="geometry" />
        </mxCell>
        <mxCell id="GapgydkodPAE_BLS_c7m-26" value="Thêm tài khoản mới" style="html=1;align=left;spacingLeft=2;endArrow=block;rounded=0;edgeStyle=orthogonalEdgeStyle;curved=0;rounded=0;" edge="1" target="GapgydkodPAE_BLS_c7m-25" parent="1">
          <mxGeometry x="-0.7299" y="-22" relative="1" as="geometry">
            <mxPoint x="1072" y="965" as="sourcePoint" />
            <Array as="points">
              <mxPoint x="1102" y="995" />
            </Array>
            <mxPoint as="offset" />
          </mxGeometry>
        </mxCell>
        <mxCell id="GapgydkodPAE_BLS_c7m-28" value="Kết quả thêm tài khoản mới" style="html=1;verticalAlign=bottom;endArrow=open;dashed=1;endSize=8;curved=0;rounded=0;" edge="1" parent="1">
          <mxGeometry relative="1" as="geometry">
            <mxPoint x="1062" y="1040" as="sourcePoint" />
            <mxPoint x="857" y="1040" as="targetPoint" />
          </mxGeometry>
        </mxCell>
        <mxCell id="GapgydkodPAE_BLS_c7m-29" value="Kết quả thêm tài khoản mới" style="html=1;verticalAlign=bottom;endArrow=open;dashed=1;endSize=8;curved=0;rounded=0;" edge="1" parent="1">
          <mxGeometry relative="1" as="geometry">
            <mxPoint x="847" y="1059.41" as="sourcePoint" />
            <mxPoint x="633" y="1059.41" as="targetPoint" />
          </mxGeometry>
        </mxCell>
        <mxCell id="GapgydkodPAE_BLS_c7m-30" value="" style="html=1;points=[[0,0,0,0,5],[0,1,0,0,-5],[1,0,0,0,5],[1,1,0,0,-5]];perimeter=orthogonalPerimeter;outlineConnect=0;targetShapes=umlLifeline;portConstraint=eastwest;newEdgeStyle={&quot;curved&quot;:0,&quot;rounded&quot;:0};" vertex="1" parent="1">
          <mxGeometry x="210" y="1050" width="10" height="30" as="geometry" />
        </mxCell>
        <mxCell id="GapgydkodPAE_BLS_c7m-31" value="Hiển thị kết quả quá trình thêm tài khoản" style="html=1;verticalAlign=bottom;endArrow=open;dashed=1;endSize=8;curved=0;rounded=0;" edge="1" parent="1">
          <mxGeometry relative="1" as="geometry">
            <mxPoint x="621" y="1070" as="sourcePoint" />
            <mxPoint x="220" y="1070" as="targetPoint" />
          </mxGeometry>
        </mxCell>
      </root>
    </mxGraphModel>
  </diagram>
</mxfile>
